<svg width="29" height="29" viewBox="0 0 29 29" fill="none" xmlns="http://www.w3.org/2000/svg">
<g clip-path="url(#clip0_1_4256)">
<rect width="29" height="29" rx="6" fill="#F5DF4D"/>
<path d="M11.9248 4.91821C12.4733 4.91821 12.918 5.36286 12.918 5.91138L12.918 24.7825C12.9178 25.3308 12.4732 25.7756 11.9248 25.7756C11.3766 25.7754 10.9318 25.3307 10.9316 24.7825L10.9316 5.91138C10.9317 5.36303 11.3765 4.91848 11.9248 4.91821ZM6.95898 6.90454C7.50747 6.90454 7.95208 7.34923 7.95215 7.89771L7.95215 22.7961C7.95189 23.3444 7.50735 23.7893 6.95898 23.7893C6.41077 23.7891 5.96608 23.3443 5.96582 22.7961L5.96582 7.89771C5.96589 7.34935 6.41066 6.90473 6.95898 6.90454ZM1.99316 9.13892C2.54158 9.13892 2.98615 9.5837 2.98633 10.1321L2.98633 20.5608C2.98625 21.1093 2.54165 21.554 1.99316 21.554C1.4447 21.5539 1.00008 21.1092 1 20.5608L1 10.1321C1.00017 9.58371 1.44476 9.13893 1.99316 9.13892ZM16.8916 9.13892C17.4399 9.1391 17.8846 9.58382 17.8848 10.1321V20.5608C17.8847 21.1091 17.4399 21.5538 16.8916 21.554C16.3431 21.554 15.8985 21.1093 15.8984 20.5608V10.1321C15.8986 9.5837 16.3432 9.13892 16.8916 9.13892ZM21.8574 9.13892C22.4057 9.13903 22.8504 9.58377 22.8506 10.1321V20.5608C22.8505 21.1092 22.4058 21.5538 21.8574 21.554C21.3089 21.554 20.8643 21.1093 20.8643 20.5608V10.1321C20.8644 9.5837 21.309 9.13892 21.8574 9.13892ZM26.8232 9.13892C27.3716 9.13895 27.8162 9.58372 27.8164 10.1321V20.5608C27.8163 21.1092 27.3717 21.5539 26.8232 21.554C26.2748 21.554 25.8302 21.1093 25.8301 20.5608V10.1321C25.8303 9.5837 26.2748 9.13892 26.8232 9.13892Z" fill="url(#paint0_linear_1_4256)"/>
</g>
<defs>
<linearGradient id="paint0_linear_1_4256" x1="27.0867" y1="12.4406" x2="0.970381" y2="12.197" gradientUnits="userSpaceOnUse">
<stop offset="0.26" stop-color="white"/>
</linearGradient>
<clipPath id="clip0_1_4256">
<rect width="29" height="29" rx="6" fill="white"/>
</clipPath>
</defs>
</svg>
