<svg width="29" height="29" viewBox="0 0 29 29" fill="none" xmlns="http://www.w3.org/2000/svg">
<rect width="29" height="29" rx="6" fill="#00BD1E"/>
<g clip-path="url(#clip0_1_4192)">
<path d="M7.47362 24.3907H21.395C23.0751 24.3907 23.8687 23.8672 23.8687 22.736C23.8687 19.8909 20.2807 15.8048 14.4301 15.8048C8.58801 15.8048 5 19.8909 5 22.736C5 23.8672 5.79358 24.3907 7.47362 24.3907ZM7.05994 22.9808C6.64626 22.9808 6.4943 22.8711 6.4943 22.5671C6.4943 20.6 9.35626 17.2231 14.4301 17.2231C19.5124 17.2231 22.3744 20.6 22.3744 22.5671C22.3744 22.8711 22.2225 22.9808 21.8088 22.9808H7.05994ZM14.447 14.3696C17.005 14.3696 19.065 12.1155 19.065 9.32107C19.065 6.5773 17.005 4.39917 14.447 4.39917C11.8974 4.39917 9.82059 6.61107 9.82059 9.33795C9.82059 12.1239 11.889 14.3696 14.447 14.3696ZM14.447 12.9597C12.7332 12.9597 11.3149 11.3726 11.3149 9.33795C11.3149 7.36244 12.7248 5.80905 14.447 5.80905C16.1692 5.80905 17.5707 7.33712 17.5707 9.32107C17.5707 11.3557 16.1608 12.9597 14.447 12.9597Z" fill="white"/>
</g>
<defs>
<clipPath id="clip0_1_4192">
<rect width="18.8687" height="20" fill="white" transform="translate(5 4.39917)"/>
</clipPath>
</defs>
</svg>
