<svg width="29" height="29" viewBox="0 0 29 29" fill="none" xmlns="http://www.w3.org/2000/svg">
<rect width="29" height="29" rx="6" fill="#9D61FF"/>
<g clip-path="url(#clip0_1_4179)">
<path d="M17.596 6.97283H10.3016C9.11222 6.97283 8.00216 7.13986 7.3837 7.76825C6.76524 8.39662 6.59873 9.48635 6.59873 10.6874V19.1507C6.59873 20.312 6.76524 21.3858 7.3837 22.0141C8.01009 22.6346 9.10429 22.8176 10.254 22.8176H18.7379C19.8876 22.8176 20.9819 22.6425 21.6083 22.0141C22.2267 21.3858 22.3932 20.312 22.3932 19.1507V11.8355C22.8832 11.8287 23.3552 11.7412 23.7966 11.5845V18.8723C23.7966 20.7017 23.6222 22.0619 22.639 23.0482C21.6558 24.0345 20.2762 24.2255 18.4604 24.2255H10.5315C8.71576 24.2255 7.34406 24.0345 6.35294 23.0482C5.36975 22.0699 5.19531 20.7017 5.19531 18.8723V10.8624C5.19531 9.0966 5.37768 7.72848 6.36086 6.74216C7.34406 5.75584 8.7237 5.56494 10.476 5.56494H17.8594C17.6983 6.00654 17.6065 6.48004 17.596 6.97283Z" fill="white" fill-opacity="0.85"/>
<path d="M22.2902 10.5761C24.1694 10.5761 25.7314 9.01702 25.7314 7.12392C25.7314 5.22288 24.1694 3.67181 22.2902 3.67181C20.4031 3.67181 18.8491 5.22288 18.8491 7.12392C18.8491 9.01702 20.4031 10.5761 22.2902 10.5761Z" fill="white"/>
</g>
<defs>
<clipPath id="clip0_1_4179">
<rect width="25" height="25" fill="white" transform="translate(2 2.39917)"/>
</clipPath>
</defs>
</svg>
