<svg width="29" height="29" viewBox="0 0 29 29" fill="none" xmlns="http://www.w3.org/2000/svg">
<rect width="29" height="29" rx="6" fill="#3E5155"/>
<g clip-path="url(#clip0_255_2638)">
<path d="M6.43408 14.2081H11.2536C12.8855 14.2081 13.6856 13.4059 13.6856 11.7276V6.99369C13.6856 5.31336 12.8855 4.52246 11.2536 4.52246H6.43408C4.80223 4.52246 4 5.31336 4 6.99369V11.7276C4 13.4059 4.80223 14.2081 6.43408 14.2081ZM6.39354 12.4197C5.98292 12.4197 5.78836 12.2159 5.78836 11.7867V6.93458C5.78836 6.51262 5.98292 6.31082 6.39354 6.31082H11.2848C11.6954 6.31082 11.8993 6.51262 11.8993 6.93458V11.7867C11.8993 12.2159 11.6954 12.4197 11.2848 12.4197H6.39354ZM7.8261 10.6074H9.84616C10.0129 10.6074 10.0849 10.5353 10.0849 10.3347V8.37529C10.0849 8.18594 10.0129 8.11392 9.84616 8.11392H7.8261C7.65215 8.11392 7.59145 8.18594 7.59145 8.37529V10.3347C7.59145 10.5353 7.65215 10.6074 7.8261 10.6074ZM17.8936 14.2081H22.7038C24.3356 14.2081 25.1379 13.4059 25.1379 11.7276V6.99369C25.1379 5.31336 24.3356 4.52246 22.7038 4.52246H17.8936C16.2524 4.52246 15.4522 5.31336 15.4522 6.99369V11.7276C15.4522 13.4059 16.2524 14.2081 17.8936 14.2081ZM17.853 12.4197C17.4331 12.4197 17.2386 12.2159 17.2386 11.7867V6.93458C17.2386 6.51262 17.4331 6.31082 17.853 6.31082H22.7443C23.155 6.31082 23.3495 6.51262 23.3495 6.93458V11.7867C23.3495 12.2159 23.155 12.4197 22.7443 12.4197H17.853ZM19.3361 10.6074H21.3541C21.5322 10.6074 21.6021 10.5353 21.6021 10.3347V8.37529C21.6021 8.18594 21.5322 8.11392 21.3541 8.11392H19.3361C19.1694 8.11392 19.1107 8.18594 19.1107 8.37529V10.3347C19.1107 10.5353 19.1694 10.6074 19.3361 10.6074ZM6.43408 25.6603H11.2536C12.8855 25.6603 13.6856 24.8674 13.6856 23.1871V18.4439C13.6856 16.7749 12.8855 15.9727 11.2536 15.9727H6.43408C4.80223 15.9727 4 16.7749 4 18.4439V23.1871C4 24.8674 4.80223 25.6603 6.43408 25.6603ZM6.39354 23.872C5.98292 23.872 5.78836 23.6681 5.78836 23.2482V18.3941C5.78836 17.9649 5.98292 17.761 6.39354 17.761H11.2848C11.6954 17.761 11.8993 17.9649 11.8993 18.3941V23.2482C11.8993 23.6681 11.6954 23.872 11.2848 23.872H6.39354ZM7.8261 22.0668H9.84616C10.0129 22.0668 10.0849 21.9969 10.0849 21.7848V19.8348C10.0849 19.6454 10.0129 19.5755 9.84616 19.5755H7.8261C7.65215 19.5755 7.59145 19.6454 7.59145 19.8348V21.7848C7.59145 21.9969 7.65215 22.0668 7.8261 22.0668ZM16.2468 18.9954H18.2668C18.4335 18.9954 18.5056 18.9254 18.5056 18.7248V16.7654C18.5056 16.574 18.4335 16.504 18.2668 16.504H16.2468C16.0728 16.504 16.0121 16.574 16.0121 16.7654V18.7248C16.0121 18.9254 16.0728 18.9954 16.2468 18.9954ZM22.309 18.9954H24.327C24.4958 18.9954 24.5658 18.9254 24.5658 18.7248V16.7654C24.5658 16.574 24.4958 16.504 24.327 16.504H22.309C22.133 16.504 22.0744 16.574 22.0744 16.7654V18.7248C22.0744 18.9254 22.133 18.9954 22.309 18.9954ZM19.3062 22.0322H21.3242C21.493 22.0322 21.565 21.9602 21.565 21.7502V19.8001C21.565 19.6108 21.493 19.5388 21.3242 19.5388H19.3062C19.1302 19.5388 19.0716 19.6108 19.0716 19.8001V21.7502C19.0716 21.9602 19.1302 22.0322 19.3062 22.0322ZM16.2468 25.0576H18.2668C18.4335 25.0576 18.5056 24.9856 18.5056 24.7849V22.8256C18.5056 22.6362 18.4335 22.5642 18.2668 22.5642H16.2468C16.0728 22.5642 16.0121 22.6362 16.0121 22.8256V24.7849C16.0121 24.9856 16.0728 25.0576 16.2468 25.0576ZM22.309 25.0576H24.327C24.4958 25.0576 24.5658 24.9856 24.5658 24.7849V22.8256C24.5658 22.6362 24.4958 22.5642 24.327 22.5642H22.309C22.133 22.5642 22.0744 22.6362 22.0744 22.8256V24.7849C22.0744 24.9856 22.133 25.0576 22.309 25.0576Z" fill="white" fill-opacity="0.85"/>
</g>
<defs>
<clipPath id="clip0_255_2638">
<rect width="21.1379" height="21.1605" fill="white" transform="translate(4 4.5)"/>
</clipPath>
</defs>
</svg>
