<svg width="29" height="29" viewBox="0 0 29 29" fill="none" xmlns="http://www.w3.org/2000/svg">
<rect width="29" height="29" rx="6" fill="#6197FF"/>
<g clip-path="url(#clip0_1_4204)">
<path d="M12.5866 16.8293C11.4546 17.8099 10.8182 19.0629 10.8182 20.1829C10.8182 20.5044 10.8859 20.807 11.0407 21.0657L5.62279 21.0658C4.8095 21.0658 4.47241 20.7447 4.47241 20.1294C4.47241 18.2085 6.40934 15.9292 9.51268 15.9292C10.7353 15.9292 11.7766 16.2817 12.5866 16.8293ZM11.9098 12.2265C11.9098 13.7194 10.8182 14.8751 9.52337 14.8751C8.22856 14.8751 7.13166 13.7194 7.13166 12.2373C7.13166 10.7872 8.23925 9.65826 9.52337 9.65826C10.8075 9.65826 11.9098 10.7658 11.9098 12.2265Z" fill="white" fill-opacity="0.85"/>
<path d="M20.7209 16.7507C20.689 16.9176 20.6741 17.0903 20.6741 17.2666C20.6741 18.3367 21.2091 19.2837 22.0705 19.8295V21.0613C22.0095 21.0642 21.9451 21.0655 21.878 21.0655H13.0494C12.0595 21.0655 11.6743 20.7819 11.6743 20.1826C11.6743 18.4062 13.8949 15.9557 17.4637 15.9557C18.735 15.9557 19.8353 16.2667 20.7209 16.7507ZM20.2139 11.6805C20.2139 13.3927 18.9619 14.7197 17.469 14.7197C15.9816 14.7197 14.7295 13.3927 14.7295 11.6912C14.7295 10.0272 15.9923 8.72699 17.469 8.72699C18.9512 8.72699 20.2139 10.0058 20.2139 11.6805Z" fill="white" fill-opacity="0.85"/>
<path d="M23.7024 15.0942C22.4878 15.0942 21.5247 16.0681 21.5247 17.2666C21.5247 18.1922 22.0758 18.9841 22.9212 19.3105V22.7189C22.9212 22.7937 22.9586 22.858 23.0175 22.9275L23.5847 23.4947C23.6542 23.5643 23.7398 23.5696 23.8147 23.4947L24.9063 22.4139C24.9705 22.3443 24.9705 22.264 24.9063 22.1945L24.2107 21.5043L25.1631 20.5786C25.222 20.5198 25.222 20.4235 25.1471 20.3432L24.2107 19.4175C25.2754 18.9895 25.8747 18.2137 25.8747 17.2666C25.8747 16.0734 24.9063 15.0942 23.7024 15.0942ZM23.697 16.1001C24.0662 16.1001 24.3659 16.4052 24.3659 16.769C24.3659 17.1489 24.0662 17.4485 23.697 17.4485C23.3279 17.4485 23.0228 17.1489 23.0228 16.769C23.0228 16.4052 23.3225 16.1001 23.697 16.1001Z" fill="#F5DF4D"/>
</g>
<defs>
<clipPath id="clip0_1_4204">
<rect width="25.7311" height="19" fill="white" transform="translate(1 5.39917)"/>
</clipPath>
</defs>
</svg>
